# xmcd CD database file
#
# Track frame offsets:
#	182
#	14595
#	32632
#	45710
#	63262
#	77372
#	92447
#	103857
#	118322
#	135597
#
# Disc length: 2020 seconds
#
# Revision: 0
# Processed by: cddbd v1.5.1PL0 Copyright (c) Steve Scherf et al.
# Submitted via: CDex 1.51
#
DISCID=7b07e20a
DTITLE=Curtis Grambo - Big News Back Home
DYEAR=1993
DGENRE=Country
TTITLE0=Can't Make No Sense
TTITLE1=Give Her My Number
TTITLE2=Me Myself And I
TTITLE3=Silence Says It All
TTITLE4=She Makes Me Dream
TTITLE5=Why You Been Gone So Long
TTITLE6=Big News Back Home
TTITLE7=Don't Leave Me In Love
TTITLE8=Best Of Me
TTITLE9=All In Her Jeans
EXTD=YEAR: 1993
EXTT0=
EXTT1=
EXTT2=
EXTT3=
EXTT4=
EXTT5=
EXTT6=
EXTT7=
EXTT8=
EXTT9=
PLAYORDER=
